<svg xmlns="http://www.w3.org/2000/svg" width="717.195" height="418.031" viewBox="0 0 717.195 418.031">
  <g id="watermark" transform="translate(-880.688 -147.304)" opacity="0.35">
    <path id="Rectangle_6" data-name="Rectangle 6" d="M34,0h89.12a0,0,0,0,1,0,0V378.834a25,25,0,0,1-25,25H25a25,25,0,0,1-25-25V34A34,34,0,0,1,34,0Z" transform="translate(880.688 199.336) rotate(-25)" fill="#eef5e7"/>
    <path id="Rectangle_9" data-name="Rectangle 9" d="M34,0h89.12a0,0,0,0,1,0,0V378.834a25,25,0,0,1-25,25H25a25,25,0,0,1-25-25V34A34,34,0,0,1,34,0Z" transform="translate(1098.159 199.336) rotate(-25)" fill="#eef5e7"/>
    <path id="Rectangle_10" data-name="Rectangle 10" d="M34,0h89.12a0,0,0,0,1,0,0V378.834a25,25,0,0,1-25,25H25a25,25,0,0,1-25-25V34A34,34,0,0,1,34,0Z" transform="translate(1315.63 199.336) rotate(-25)" fill="#eef5e7"/>
  </g>
</svg>
